Coordinates
version=1
nRows=16
nColumns=24
inDegrees=yes

Units are S.I. units (second, meters, Newtons, ...)
If the header above contains a line with 'inDegrees', this indicates whether rotational values are in degrees (yes) or radians (no).

endheader
time	pelvis_tilt	pelvis_list	pelvis_rotation	pelvis_tx	pelvis_ty	pelvis_tz	hip_flexion_r	hip_adduction_r	hip_rotation_r	knee_angle_r	ankle_angle_r	subtalar_angle_r	mtp_angle_r	hip_flexion_l	hip_adduction_l	hip_rotation_l	knee_angle_l	ankle_angle_l	subtalar_angle_l	mtp_angle_l	lumbar_extension	lumbar_bending	lumbar_rotation
4.925000	9.917764	1.624922	-180.790432	0.262587	0.798583	-1.206401	34.886667	-17.486045	-23.789206	-45.113823	13.995825	8.746614	0.000000	35.746786	-21.779912	-21.502693	-46.223636	14.935183	14.184358	0.000000	-3.514322	2.341931	0.100007
4.930000	9.805876	1.635309	-180.720348	0.263073	0.796402	-1.206546	35.214009	-17.671880	-23.663484	-45.992635	14.485433	8.688573	0.000000	36.115907	-21.953728	-21.321301	-47.048317	15.327900	14.251571	0.000000	-3.765140	2.307964	-0.018253
4.935000	9.834786	1.694430	-180.701154	0.263490	0.794082	-1.206468	35.679310	-17.818063	-23.569309	-46.846175	14.873787	8.753950	0.000000	36.625198	-22.182366	-21.148840	-47.886471	15.743257	14.430117	0.000000	-3.783350	2.330232	0.070287
4.940000	9.770653	1.711050	-180.639859	0.263921	0.791753	-1.206552	36.053200	-18.007203	-23.450043	-47.718057	15.295000	8.748596	0.000000	37.049699	-22.359028	-20.950762	-48.728184	16.153471	14.550810	0.000000	-3.954126	2.330602	-0.024564
4.945000	9.753162	1.742279	-180.594051	0.264273	0.789391	-1.206659	36.454465	-18.179122	-23.365431	-48.556317	15.686931	8.811478	0.000000	37.512318	-22.560358	-20.764782	-49.558458	16.531043	14.684249	0.000000	-4.052951	2.330892	-0.089637
4.950000	9.692338	1.778259	-180.544237	0.264641	0.787019	-1.206639	36.827157	-18.344257	-23.243264	-49.412483	16.108859	8.800677	0.000000	37.931770	-22.731045	-20.529298	-50.359095	16.920737	14.708601	0.000000	-4.205753	2.345385	-0.087515
4.955000	9.678393	1.832582	-180.521462	0.265021	0.784535	-1.206712	37.264418	-18.487422	-23.143507	-50.297631	16.526749	8.817253	0.000000	38.415066	-22.951615	-20.287345	-51.205511	17.307580	14.787087	0.000000	-4.303595	2.414077	-0.172902
4.960000	9.603570	1.839069	-180.486147	0.265356	0.782071	-1.206687	37.642086	-18.686721	-23.013725	-51.186992	16.980527	8.827828	0.000000	38.814265	-23.094141	-20.074888	-52.024879	17.682880	14.770590	0.000000	-4.487092	2.365724	-0.122651
4.965000	9.587216	1.851649	-180.454261	0.265763	0.779524	-1.206746	38.072109	-18.869669	-22.898560	-52.047448	17.393840	8.853502	0.000000	39.288914	-23.256220	-19.853520	-52.864334	18.074875	14.814968	0.000000	-4.573716	2.390362	-0.206462
4.970000	9.612112	1.911858	-180.426270	0.266108	0.776975	-1.206763	38.510056	-18.990949	-22.798973	-52.850201	17.755185	8.838628	0.000000	39.807285	-23.451066	-19.598675	-53.689788	18.491834	14.870500	0.000000	-4.634683	2.392013	-0.146677
4.975000	9.598554	1.940677	-180.386204	0.266432	0.774410	-1.206831	38.926975	-19.142374	-22.664206	-53.685233	18.171481	8.805767	0.000000	40.281361	-23.602659	-19.334349	-54.513701	18.899291	14.892999	0.000000	-4.727997	2.396224	-0.166639
4.980000	9.618511	1.983781	-180.361262	0.266790	0.771807	-1.206889	39.371737	-19.294908	-22.584305	-54.511518	18.576185	8.836153	0.000000	40.791949	-23.782741	-19.091437	-55.325170	19.293478	14.932144	0.000000	-4.791053	2.398857	-0.146606
4.985000	9.607397	2.009605	-180.332620	0.267194	0.769233	-1.207074	39.802844	-19.429479	-22.426433	-55.346951	19.013251	8.806251	0.000000	41.301514	-23.960116	-18.824509	-56.266690	19.605880	14.955812	0.000000	-4.894206	2.411997	-0.228481
4.990000	9.581074	2.022752	-180.293291	0.267582	0.766596	-1.207194	40.220271	-19.601419	-22.314087	-56.194232	19.416304	8.740872	0.000000	41.760046	-24.108988	-18.607829	-57.056744	19.967058	14.943857	0.000000	-5.019496	2.334195	-0.129476
4.995000	9.627968	2.091744	-180.307463	0.267890	0.763911	-1.207217	40.680972	-19.696547	-22.198139	-56.978304	19.783862	8.761051	0.000000	42.277750	-24.312784	-18.358197	-57.848168	20.379416	14.989204	0.000000	-5.055982	2.411072	-0.143252
5.000000	9.631263	2.090183	-180.286448	0.268314	0.761149	-1.207347	41.136631	-19.870358	-22.047771	-57.815207	20.183843	8.751754	0.000000	42.762958	-24.447953	-18.123372	-58.646689	20.751451	15.036321	0.000000	-5.157696	2.373260	-0.147289
